<?xml version="1.0" encoding="UTF-8" standalone="no"?>
<svg
   width="20"
   height="20"
   viewBox="0 0 20 20"
   fill="none"
   version="1.1"
   id="svg1"
   sodipodi:docname="icon-radio.svg"
   inkscape:version="1.3 (0e150ed, 2023-07-21)"
   xmlns:inkscape="http://www.inkscape.org/namespaces/inkscape"
   xmlns:sodipodi="http://sodipodi.sourceforge.net/DTD/sodipodi-0.dtd"
   xmlns="http://www.w3.org/2000/svg"
   xmlns:svg="http://www.w3.org/2000/svg">
  <defs
     id="defs1" />
  <sodipodi:namedview
     id="namedview1"
     pagecolor="#ffffff"
     bordercolor="#000000"
     borderopacity="0.25"
     inkscape:showpageshadow="2"
     inkscape:pageopacity="0.0"
     inkscape:pagecheckerboard="0"
     inkscape:deskcolor="#d1d1d1"
     inkscape:zoom="15.893067"
     inkscape:cx="6.0718301"
     inkscape:cy="5.7257672"
     inkscape:window-width="1376"
     inkscape:window-height="449"
     inkscape:window-x="0"
     inkscape:window-y="25"
     inkscape:window-maximized="0"
     inkscape:current-layer="svg1" />
  <path
     d="m 9.9999997,0.12079481 c -1.9656931,0 -3.8872584,0.58105558 -5.5216801,1.66967999 C 2.8439081,2.8790992 1.570024,4.4264164 0.81778615,6.2367394 0.06554524,8.0470624 -0.13127588,10.03907 0.25221353,11.960883 c 0.3834894,1.921814 1.33006317,3.687142 2.72002187,5.072742 1.389969,1.385599 3.1608829,2.329181 5.088809,2.71145 1.9279362,0.38227 3.9262996,0.186054 5.7423916,-0.563852 1.81599,-0.749805 3.368272,-2.019667 4.460313,-3.648935 1.092142,-1.629269 1.675012,-3.54468 1.675012,-5.504192 C 19.93597,7.4013705 18.888005,4.8830159 17.024717,3.0256358 15.161428,1.1682658 12.635046,0.12356885 9.9999997,0.12079481 Z m 0,18.29040219 c -1.6632795,0 -3.28921,-0.491707 -4.6721861,-1.412832 C 3.9448375,16.07724 2.8669457,14.767952 2.2304368,13.236131 1.5939279,11.70431 1.4273849,10.018747 1.7518778,8.392629 2.0763605,6.76647 2.8773126,5.2727437 4.05343,4.1003493 5.2295575,2.9279549 6.7280272,2.1295382 8.35935,1.8060724 c 1.6313233,-0.3234657 3.322288,-0.1574499 4.858872,0.4770442 1.536685,0.6345042 2.850131,1.708984 3.774181,3.0875824 0.92405,1.3785882 1.417318,2.9993719 1.417318,4.657397 -0.0026,2.222589 -0.889392,4.35342 -2.465935,5.924972 -1.576541,1.571552 -3.71414,2.455589 -5.9437863,2.458129 z"
     fill="#86a2a5"
     id="path1"
     style="stroke-width:1.01774" />
</svg>
